<svg xmlns="http://www.w3.org/2000/svg" width="89.855" height="89.833" viewBox="0 0 89.855 89.833">
  <g id="Group_6" data-name="Group 6" transform="translate(-150.399 243.969) rotate(-90)">
    <path id="Path_6" data-name="Path 6" d="M310.546,327.571c.109-1.934,1.579-5.262,3.19-8.389l-3.389-3.257c-2.577,4.423-4.6,8.528-4.6,11.941A21.846,21.846,0,0,0,310.546,327.571Z" transform="translate(-106.83 -116.634)" fill="#d9b15b"/>
    <path id="Path_7" data-name="Path 7" d="M310.434,381.664c3.013,13.469,14.057,14.189,14.057,14.189s-3.279-4.962,2.393-7.178c6.975-2.725,3.545-6.646,3.545-6.646,7.8.443,6.469,9.039,6.469,9.039,12.14-2.747,13.824,9.659,13.824,9.659-9.039-5.228-10.191.886-21.711.886-13.735,0-23.372-10.567-23.372-19.606A39.064,39.064,0,0,0,310.434,381.664Z" transform="translate(-106.752 -162.954)" fill="#d9b15b"/>
    <path id="Path_8" data-name="Path 8" d="M316.23,324.561s7.266-5.583,7.266-10.811c0-7.8-13.358-18.1-13.358-18.1l2.681-4.475S324.294,301.7,326.6,307.547a3.254,3.254,0,0,1,2.038-.532c1.418,0,3.279,1.861,3.279,4.431a3.8,3.8,0,0,1-4.342,3.81s.886,7.267-8.241,12.938A14.539,14.539,0,0,1,316.23,324.561Z" transform="translate(-109.922 -99.194)" fill="#d9b15b"/>
    <path id="Path_9" data-name="Path 9" d="M283.341,362.588a4.492,4.492,0,0,1-2.3-3.9,4.726,4.726,0,0,1,2.215-3.988s.214.5,5.236.5,5.2-.5,5.2-.5a4.726,4.726,0,0,1,2.215,3.988,4.492,4.492,0,0,1-2.3,3.9,26.537,26.537,0,0,1-5.14.414A26.137,26.137,0,0,1,283.341,362.588Z" transform="translate(-89.417 -143.956)" fill="#d9b15b"/>
    <path id="Path_10" data-name="Path 10" d="M245.981,229.68s-3.8-6.469-5.483-9.393-1.418-4.962-.709-6.557c0,0-8.832.5-5.76-8.33a4.86,4.86,0,0,0,3.013,1.6,3.922,3.922,0,0,0,3.81-3.988c0-2.658-2.658-4.431-5.405-4.431a7.038,7.038,0,0,0-6.646,7.178c0,5.187,5.459,12.8,10.213,20.315l-3.234,3.323c-1.457-2.522-2.636-4.409-2.636-4.409s-1.506,6.292-7.178,2.215a6.874,6.874,0,0,0,2.57-5.76c0-4.077-6.026-11.431-4.076-19.052a3.777,3.777,0,0,1-3.722-3.9c0-2.836,2.614-3.589,4.431-3.456a3.345,3.345,0,0,1,2.924,2.924s1.949-3.456,7.8-3.456a10.953,10.953,0,0,1,10.091,7.266,10.953,10.953,0,0,1,10.091-7.266c5.848,0,7.8,3.456,7.8,3.456a3.345,3.345,0,0,1,2.924-2.924c1.817-.133,4.431.62,4.431,3.456a3.777,3.777,0,0,1-3.722,3.9c1.949,7.621-4.076,14.976-4.076,19.052A6.874,6.874,0,0,0,266,227.2c-5.671,4.076-7.178-2.215-7.178-2.215s-1.179,1.887-2.636,4.409l-3.234-3.323c4.753-7.511,10.213-15.128,10.213-20.315a7.038,7.038,0,0,0-6.646-7.178c-2.747,0-5.405,1.772-5.405,4.431a3.922,3.922,0,0,0,3.81,3.988,4.86,4.86,0,0,0,3.013-1.6c3.072,8.832-5.76,8.33-5.76,8.33.709,1.6.975,3.633-.709,6.557S245.981,229.68,245.981,229.68Z" transform="translate(-46.929 -31.075)" fill="#d9b15b"/>
    <path id="Path_11" data-name="Path 11" d="M282.813,327.571c-.11-1.934-1.59-5.262-3.2-8.389l3.39-3.257c2.577,4.423,4.663,8.551,4.663,11.963A28.153,28.153,0,0,1,282.813,327.571Z" transform="translate(-88.413 -116.634)" fill="#d9b15b"/>
    <path id="Path_12" data-name="Path 12" d="M199.23,382.075c0,9.039-9.648,19.617-23.383,19.617-11.52,0-12.672-6.114-21.711-.886,0,0,1.684-12.406,13.824-9.659,0,0-1.329-8.6,6.469-9.039,0,0-3.431,3.922,3.545,6.646,5.671,2.215,2.393,7.178,2.393,7.178s11.077-.687,14.09-14.156A34.361,34.361,0,0,0,199.23,382.075Z" transform="translate(0 -163.033)" fill="#d9b15b"/>
    <path id="Path_13" data-name="Path 13" d="M284.962,161.21c-4.874,1.329-2.913,5.317-2.913,5.317a8.9,8.9,0,0,0-5.937-3.013s-.62-4.431,2.393-7.178c3.406-3.105,6.458-5.937,6.458-5.937s3.052,2.832,6.458,5.937c3.013,2.747,2.393,7.178,2.393,7.178a8.9,8.9,0,0,0-5.937,3.013S289.835,162.539,284.962,161.21Z" transform="translate(-85.909)" fill="#d9b15b"/>
    <path id="Path_14" data-name="Path 14" d="M244.222,324.561s-7.266-5.583-7.266-10.811c0-7.8,13.359-18.1,13.359-18.1l-2.681-4.475s-11.475,10.523-13.779,16.371a3.254,3.254,0,0,0-2.038-.532c-1.418,0-3.279,1.861-3.279,4.431a3.8,3.8,0,0,0,4.342,3.81s-.886,7.267,8.241,12.938A14.539,14.539,0,0,0,244.222,324.561Z" transform="translate(-52.425 -99.194)" fill="#d9b15b"/>
    <path id="Path_15" data-name="Path 15" d="M290.161,426.54c-1.152-2.924-6.724-7.887-6.724-7.887a24.993,24.993,0,0,0,3.456-3.877l3.268,3.39,3.268-3.39a24.986,24.986,0,0,0,3.456,3.877S291.313,423.616,290.161,426.54Z" transform="translate(-91.108 -186.286)" fill="#d9b15b"/>
  </g>
</svg>
